<?xml version="1.0" encoding="UTF-8" standalone="no"?>
<!DOCTYPE svg PUBLIC "-//W3C//DTD SVG 1.1//EN" "http://www.w3.org/Graphics/SVG/1.1/DTD/svg11.dtd">
<svg width="100%" height="100%" viewBox="0 0 1073 205" version="1.1" xmlns="http://www.w3.org/2000/svg" xmlns:xlink="http://www.w3.org/1999/xlink" xml:space="preserve" xmlns:serif="http://www.serif.com/" style="fill-rule:evenodd;clip-rule:evenodd;stroke-linejoin:round;stroke-miterlimit:2;">
    <g transform="matrix(0.874024,0,0,0.793728,-1369.1,-658.528)">
        <g transform="matrix(0.429822,0,0,0.473305,1037.14,606.747)">
            <path d="M4080.02,798.21L4080.02,958.79C4080.02,985.95 4057.97,1008 4030.81,1008L1288.21,1008C1261.05,1008 1239,985.95 1239,958.79L1239,798.21C1239,771.05 1261.05,749 1288.21,749L4030.81,749C4057.97,749 4080.02,771.05 4080.02,798.21Z" style="fill-opacity:0.4;"/>
        </g>
        <g transform="matrix(0.455003,0,0,0.501033,1002.68,582.388)">
            <path d="M3937.13,803.39L3937.13,953.61C3937.13,983.629 3912.76,1008 3882.74,1008L1293.39,1008C1263.37,1008 1239,983.629 1239,953.61L1239,803.39C1239,773.371 1263.37,749 1293.39,749L3882.74,749C3912.76,749 3937.13,773.371 3937.13,803.39ZM3929.96,802.653C3929.96,776.997 3909.13,756.167 3883.47,756.167L1292.65,756.167C1267,756.167 1246.17,776.997 1246.17,802.653L1246.17,954.347C1246.17,980.003 1267,1000.83 1292.65,1000.83L3883.47,1000.83C3909.13,1000.83 3929.96,980.003 3929.96,954.347L3929.96,802.653Z" style="fill:rgb(168,176,198);"/>
        </g>
        <g transform="matrix(0.776946,0,0,0.855545,1616.31,872.724)">
            <path d="M208.864,210.056L208.864,140.401L194.184,140.401L168.064,196.084L142.045,140.401L127.061,140.401L127.061,210.056L139.615,210.056L139.615,164.497L161.585,210.056L174.24,210.056L196.31,164.497L196.31,210.056L208.864,210.056Z" style="fill:rgb(168,176,198);fill-rule:nonzero;"/>
            <path d="M323.166,210.056L323.166,196.388L269.913,196.388L269.913,180.797L321.647,180.797L321.647,169.559L269.913,169.559L269.913,154.17L323.166,154.17L323.166,140.401L256.245,140.401L256.245,210.056L323.166,210.056Z" style="fill:rgb(168,176,198);fill-rule:nonzero;"/>
            <path d="M427.85,210.056C444.757,210.056 449.718,204.589 449.718,187.479L449.718,162.978C449.718,145.97 444.757,140.401 427.85,140.401L369.231,140.401L369.231,210.056L427.85,210.056ZM436.05,187.58C436.05,194.464 434.025,196.388 427.85,196.388L383,196.388L383,154.17L427.85,154.17C433.823,154.17 436.05,156.195 436.05,163.08L436.05,187.58Z" style="fill:rgb(168,176,198);fill-rule:nonzero;"/>
            <rect x="497.402" y="140.401" width="13.668" height="69.654" style="fill:rgb(168,176,198);fill-rule:nonzero;"/>
            <path d="M644.608,210.056L606.44,140.401L592.164,140.401L553.996,210.056L569.588,210.056L578.294,193.857L620.31,193.857L629.016,210.056L644.608,210.056ZM615.146,182.923L583.559,182.923L599.353,154.069L615.146,182.923Z" style="fill:rgb(168,176,198);fill-rule:nonzero;"/>
            <path d="M830.487,210.056L830.487,169.559L791.509,169.559L791.509,180.898L817.629,180.898L817.629,189.807C817.629,194.059 815.098,196.388 807.404,196.388L775.715,196.388C769.236,196.388 767.515,195.072 767.515,185.454L767.515,162.978C767.515,156.094 769.337,154.17 775.715,154.17L810.036,154.17C815.402,154.17 817.629,156.803 818.945,159.536L827.551,150.627C826.032,146.78 821.173,140.401 810.947,140.401L775.614,140.401C758.403,140.401 753.948,146.273 753.948,162.978L753.948,187.479C753.948,204.892 758.403,210.056 775.614,210.056L805.176,210.056C812.972,210.056 817.629,205.601 818.54,201.551L818.945,210.056L830.487,210.056Z" style="fill:rgb(168,176,198);fill-rule:nonzero;"/>
            <path d="M956.634,210.056L930.817,187.074C948.028,187.074 954.406,183.227 954.406,166.218L954.406,161.966C954.406,146.172 949.243,140.401 934.462,140.401L877.564,140.401L877.564,210.056L891.333,210.056L891.333,187.276L913.302,187.276L937.398,210.056L956.634,210.056ZM940.84,167.635C940.84,173.71 938.916,175.836 934.057,175.836L891.333,175.836L891.333,154.272L934.057,154.272C940.03,154.272 940.84,157.511 940.84,164.294L940.84,167.635Z" style="fill:rgb(168,176,198);fill-rule:nonzero;"/>
            <path d="M1058.79,210.056C1075.39,210.056 1080.55,204.589 1080.55,187.479L1080.55,162.978C1080.55,145.868 1075.39,140.401 1058.79,140.401L1022.04,140.401C1005.13,140.401 1000.27,145.868 1000.27,162.978L1000.27,187.479C1000.27,204.589 1005.13,210.056 1022.04,210.056L1058.79,210.056ZM1066.89,187.58C1066.89,194.464 1064.96,196.388 1058.68,196.388L1022.04,196.388C1015.76,196.388 1013.84,194.464 1013.84,187.58L1013.84,163.08C1013.84,156.195 1015.96,154.17 1022.04,154.17L1058.68,154.17C1064.76,154.17 1066.89,156.195 1066.89,163.08L1066.89,187.58Z" style="fill:rgb(168,176,198);fill-rule:nonzero;"/>
            <path d="M1182.91,210.056C1198.4,210.056 1203.97,203.779 1203.97,187.985L1203.97,140.401L1190.3,140.401L1190.3,187.985C1190.3,193.857 1188.27,196.388 1182.91,196.388L1148.89,196.388C1143.53,196.388 1141.5,193.857 1141.5,187.985L1141.5,140.401L1127.93,140.401L1127.93,187.985C1127.93,203.779 1133.4,210.056 1148.89,210.056L1182.91,210.056Z" style="fill:rgb(168,176,198);fill-rule:nonzero;"/>
            <path d="M1303.59,187.479C1319.58,187.479 1324.65,182.113 1324.65,167.838L1324.65,161.561C1324.65,145.464 1319.58,140.401 1303.59,140.401L1251.35,140.401L1251.35,210.056L1265.02,210.056L1265.02,187.479L1303.59,187.479ZM1311.08,167.939C1311.08,172.9 1309.06,175.026 1303.59,175.026L1265.02,175.026L1265.02,154.17L1303.59,154.17C1309.06,154.17 1311.08,156.094 1311.08,161.561L1311.08,167.939Z" style="fill:rgb(168,176,198);fill-rule:nonzero;"/>
        </g>
    </g>
    <g transform="matrix(0.880772,0,0,0.880772,-101.686,-104.861)">
        <path d="M142.076,191.431L149.201,210.056L195.576,210.056C213.201,210.056 219.701,201.806 219.701,186.556L219.701,178.556C219.701,170.931 215.701,165.681 210.451,163.056C214.201,160.431 217.826,156.056 217.826,148.806L217.826,140.806C217.826,126.931 210.826,119.056 193.826,119.056L119.076,119.056C116.576,119.056 115.451,120.306 115.451,122.806L115.451,210.056L141.201,210.056L141.201,191.431L142.076,191.431ZM185.951,171.556C190.701,171.556 192.451,173.431 192.451,178.806L192.451,181.431C192.451,186.806 190.451,188.681 185.951,188.681L141.201,188.681L141.201,171.556L185.951,171.556ZM184.451,139.306C190.076,139.306 192.201,141.306 192.201,146.806L192.201,149.556C192.201,154.806 190.076,156.806 184.451,156.806L141.201,156.806L141.201,141.431C141.201,140.056 141.826,139.306 143.326,139.306L184.451,139.306Z" style="fill:rgb(238,241,248);fill-rule:nonzero;"/>
        <path d="M250.451,166.181L282.576,210.056L311.576,210.056L311.576,209.056L297.076,190.931C295.076,188.431 292.826,185.931 290.701,183.931L290.701,183.056C292.451,183.181 294.326,183.181 296.826,183.181L299.451,183.181C321.076,183.181 329.201,172.306 329.201,154.681L329.201,148.181C329.201,130.181 321.076,119.056 298.451,119.056L227.326,119.056C224.951,119.056 223.826,120.306 223.826,122.806L223.826,210.056L249.576,210.056L249.576,166.181L250.451,166.181ZM293.826,141.806C300.576,141.806 303.326,144.056 303.326,151.056L303.326,154.181C303.326,161.556 300.576,163.806 293.826,163.806L249.576,163.806L249.576,143.931C249.576,142.431 250.326,141.806 251.326,141.806L293.826,141.806Z" style="fill:rgb(238,241,248);fill-rule:nonzero;"/>
        <path d="M379.701,141.681C380.076,141.056 380.576,140.806 381.326,140.806L382.826,140.806C383.701,140.806 384.201,141.056 384.576,141.681L398.951,170.431C404.201,181.056 405.951,183.806 408.076,187.431L407.701,188.306C403.451,187.931 398.951,187.806 388.201,187.806L362.701,187.806L362.701,190.306L370.201,210.056L448.076,210.056L448.076,209.056L402.826,122.056C401.576,119.806 400.701,119.056 397.826,119.056L366.451,119.056C363.576,119.056 362.826,119.806 361.701,122.056L316.076,209.056L316.076,210.056L345.826,210.056L379.701,141.681Z" style="fill:rgb(238,241,248);fill-rule:nonzero;"/>
        <rect x="450.451" y="119.056" width="25.75" height="91" style="fill:rgb(238,241,248);fill-rule:nonzero;"/>
        <path d="M486.326,119.056C483.951,119.056 482.826,120.306 482.826,122.806L482.826,210.056L506.201,210.056L506.201,141.681C506.201,140.431 506.826,139.681 508.201,139.681L509.451,139.681C510.701,139.681 511.326,140.181 511.826,141.181L547.576,206.431C549.076,209.181 550.451,210.056 553.951,210.056L590.951,210.056C593.326,210.056 594.451,208.806 594.451,206.431L594.451,119.056L571.076,119.056L571.076,187.556C571.076,188.806 570.326,189.556 569.076,189.556L567.701,189.556C566.576,189.556 565.826,188.931 565.326,188.056L530.826,122.681C529.576,120.181 528.326,119.056 524.576,119.056L486.326,119.056Z" style="fill:rgb(238,241,248);fill-rule:nonzero;"/>
        <path d="M706.451,141.806L706.451,123.056C706.451,120.431 705.201,119.056 702.576,119.056L621.701,119.056C605.451,119.056 598.951,126.681 598.951,139.806L598.951,146.181C598.951,159.431 604.826,165.306 619.576,167.181L674.076,174.056C677.201,174.431 678.076,175.431 678.076,178.556L678.076,181.056C678.076,185.056 676.951,186.431 672.701,186.431L600.076,186.431L600.076,210.056L681.076,210.056C701.201,210.056 707.826,201.931 707.826,186.931L707.826,179.681C707.826,165.931 702.701,160.056 688.201,158.056L631.701,150.181C628.451,149.681 627.451,149.181 627.451,145.681L627.451,143.431C627.451,140.556 628.576,139.056 632.076,139.056L680.076,139.056C681.076,139.056 681.576,139.556 681.576,140.556L681.576,150.556L682.576,150.556L706.451,141.806Z" style="fill:rgb(238,241,248);fill-rule:nonzero;"/>
        <path d="M806.201,141.806C807.201,141.806 807.576,142.181 807.576,143.181L807.576,155.306L808.576,155.306L832.451,146.431L832.451,122.806C832.451,120.306 831.326,119.056 828.826,119.056L708.201,119.056L708.201,120.056L716.576,141.806L754.326,141.806L754.326,210.056L780.076,210.056L780.076,141.806L806.201,141.806Z" style="fill:rgb(238,241,248);fill-rule:nonzero;"/>
        <path d="M862.326,166.181L894.451,210.056L923.451,210.056L923.451,209.056L908.951,190.931C906.951,188.431 904.701,185.931 902.576,183.931L902.576,183.056C904.326,183.181 906.201,183.181 908.701,183.181L911.326,183.181C932.951,183.181 941.076,172.306 941.076,154.681L941.076,148.181C941.076,130.181 932.951,119.056 910.326,119.056L839.201,119.056C836.826,119.056 835.701,120.306 835.701,122.806L835.701,210.056L861.451,210.056L861.451,166.181L862.326,166.181ZM905.701,141.806C912.451,141.806 915.201,144.056 915.201,151.056L915.201,154.181C915.201,161.556 912.451,163.806 905.701,163.806L861.451,163.806L861.451,143.931C861.451,142.431 862.201,141.806 863.201,141.806L905.701,141.806Z" style="fill:rgb(238,241,248);fill-rule:nonzero;"/>
        <path d="M977.201,173.431L1012.83,173.431L1012.83,154.931L970.326,154.931L970.326,143.556C970.326,142.681 970.701,141.806 971.951,141.806L1023.58,141.806C1024.33,141.806 1024.83,142.181 1024.83,143.181L1024.83,155.306L1025.83,155.306L1049.7,146.431L1049.7,122.806C1049.7,120.306 1048.45,119.056 1045.95,119.056L948.201,119.056C945.701,119.056 944.576,120.306 944.576,122.806L944.576,206.306C944.576,208.806 945.701,210.056 948.201,210.056L1048.83,210.056L1048.83,186.431L972.076,186.431C970.701,186.431 970.326,185.806 970.326,184.681L970.326,157.431L971.201,157.431L977.201,173.431Z" style="fill:rgb(238,241,248);fill-rule:nonzero;"/>
        <path d="M1114.45,141.681C1114.83,141.056 1115.33,140.806 1116.08,140.806L1117.58,140.806C1118.45,140.806 1118.95,141.056 1119.33,141.681L1133.7,170.431C1138.95,181.056 1140.7,183.806 1142.83,187.431L1142.45,188.306C1138.2,187.931 1133.7,187.806 1122.95,187.806L1097.45,187.806L1097.45,190.306L1104.95,210.056L1182.83,210.056L1182.83,209.056L1137.58,122.056C1136.33,119.806 1135.45,119.056 1132.58,119.056L1101.2,119.056C1098.33,119.056 1097.58,119.806 1096.45,122.056L1050.83,209.056L1050.83,210.056L1080.58,210.056L1114.45,141.681Z" style="fill:rgb(238,241,248);fill-rule:nonzero;"/>
        <path d="M1333.7,210.056L1333.7,122.806C1333.7,120.306 1332.58,119.056 1330.2,119.056L1289.58,119.056C1286.7,119.056 1285.2,120.306 1284.45,122.431L1261.95,187.431C1261.83,187.931 1261.58,188.181 1260.95,188.181L1258.7,188.181C1257.95,188.181 1257.58,187.931 1257.45,187.431L1235.08,122.431C1234.33,120.306 1232.7,119.056 1229.83,119.056L1188.7,119.056C1186.33,119.056 1185.2,120.306 1185.2,122.806L1185.2,210.056L1209.33,210.056L1209.33,141.681C1209.33,140.431 1210.08,139.681 1211.33,139.681L1212.58,139.681C1213.83,139.681 1214.58,140.306 1214.95,141.306L1239.7,207.181C1240.58,209.431 1241.83,210.056 1244.58,210.056L1274.2,210.056C1276.83,210.056 1278.2,209.431 1279.08,207.181L1303.95,141.306C1304.33,140.306 1305.08,139.681 1306.2,139.681L1307.58,139.681C1308.83,139.681 1309.45,140.431 1309.45,141.681L1309.45,210.056L1333.7,210.056Z" style="fill:rgb(238,241,248);fill-rule:nonzero;"/>
    </g>
</svg>
