<?xml version="1.0" encoding="UTF-8" standalone="no"?>
<!DOCTYPE svg PUBLIC "-//W3C//DTD SVG 1.1//EN" "http://www.w3.org/Graphics/SVG/1.1/DTD/svg11.dtd">
<svg width="100%" height="100%" viewBox="0 0 1073 205" version="1.1" xmlns="http://www.w3.org/2000/svg" xmlns:xlink="http://www.w3.org/1999/xlink" xml:space="preserve" xmlns:serif="http://www.serif.com/" style="fill-rule:evenodd;clip-rule:evenodd;stroke-linejoin:round;stroke-miterlimit:2;">
    <g transform="matrix(0.874024,0,0,0.793728,-1369.1,-658.528)">
        <g transform="matrix(0.429822,0,0,0.473305,1037.14,606.747)">
            <path d="M4080.02,798.21L4080.02,958.79C4080.02,985.95 4057.97,1008 4030.81,1008L1288.21,1008C1261.05,1008 1239,985.95 1239,958.79L1239,798.21C1239,771.05 1261.05,749 1288.21,749L4030.81,749C4057.97,749 4080.02,771.05 4080.02,798.21Z" style="fill-opacity:0.1;"/>
        </g>
        <g transform="matrix(0.455003,0,0,0.501033,1002.68,582.388)">
            <path d="M3937.13,803.39L3937.13,953.61C3937.13,983.629 3912.76,1008 3882.74,1008L1293.39,1008C1263.37,1008 1239,983.629 1239,953.61L1239,803.39C1239,773.371 1263.37,749 1293.39,749L3882.74,749C3912.76,749 3937.13,773.371 3937.13,803.39ZM3929.96,802.653C3929.96,776.997 3909.13,756.167 3883.47,756.167L1292.65,756.167C1267,756.167 1246.17,776.997 1246.17,802.653L1246.17,954.347C1246.17,980.003 1267,1000.83 1292.65,1000.83L3883.47,1000.83C3909.13,1000.83 3929.96,980.003 3929.96,954.347L3929.96,802.653Z" style="fill:rgb(76,85,108);"/>
        </g>
        <g transform="matrix(0.776946,0,0,0.855545,1616.31,872.724)">
            <path d="M208.864,210.056L196.31,210.056L196.31,164.497L174.24,210.056L161.585,210.056L139.615,164.497L139.615,210.056L127.061,210.056L127.061,140.401L142.045,140.401L168.064,196.084L194.184,140.401L208.864,140.401L208.864,210.056ZM323.166,210.056L256.245,210.056L256.245,140.401L323.166,140.401L323.166,154.17L269.913,154.17L269.913,169.559L321.647,169.559L321.647,180.797L269.913,180.797L269.913,196.388L323.166,196.388L323.166,210.056ZM427.85,210.056L369.231,210.056L369.231,140.401L427.85,140.401C444.757,140.401 449.718,145.97 449.718,162.978L449.718,187.479C449.718,204.589 444.757,210.056 427.85,210.056ZM436.05,187.58L436.05,163.08C436.05,156.195 433.823,154.17 427.85,154.17L383,154.17L383,196.388L427.85,196.388C434.025,196.388 436.05,194.464 436.05,187.58ZM511.07,210.056L497.402,210.056L497.402,140.401L511.07,140.401L511.07,210.056ZM644.608,210.056L629.016,210.056L620.31,193.857L578.294,193.857L569.588,210.056L553.996,210.056L592.164,140.401L606.44,140.401L644.608,210.056ZM615.146,182.923L599.353,154.069L583.559,182.923L615.146,182.923ZM830.487,210.056L818.945,210.056L818.54,201.551C817.629,205.601 812.972,210.056 805.176,210.056L775.614,210.056C758.403,210.056 753.948,204.892 753.948,187.479L753.948,162.978C753.948,146.273 758.403,140.401 775.614,140.401L810.947,140.401C821.173,140.401 826.032,146.78 827.551,150.627L818.945,159.536C817.629,156.803 815.402,154.17 810.036,154.17L775.715,154.17C769.337,154.17 767.515,156.094 767.515,162.978L767.515,185.454C767.515,195.072 769.236,196.388 775.715,196.388L807.404,196.388C815.098,196.388 817.629,194.059 817.629,189.807L817.629,180.898L791.509,180.898L791.509,169.559L830.487,169.559L830.487,210.056ZM956.634,210.056L937.398,210.056L913.302,187.276L891.333,187.276L891.333,210.056L877.564,210.056L877.564,140.401L934.462,140.401C949.243,140.401 954.406,146.172 954.406,161.966L954.406,166.218C954.406,183.227 948.028,187.074 930.817,187.074L956.634,210.056ZM940.84,167.635L940.84,164.294C940.84,157.511 940.03,154.272 934.057,154.272L891.333,154.272L891.333,175.836L934.057,175.836C938.916,175.836 940.84,173.71 940.84,167.635ZM1058.79,210.056L1022.04,210.056C1005.13,210.056 1000.27,204.589 1000.27,187.479L1000.27,162.978C1000.27,145.868 1005.13,140.401 1022.04,140.401L1058.79,140.401C1075.39,140.401 1080.55,145.868 1080.55,162.978L1080.55,187.479C1080.55,204.589 1075.39,210.056 1058.79,210.056ZM1066.89,187.58L1066.89,163.08C1066.89,156.195 1064.76,154.17 1058.68,154.17L1022.04,154.17C1015.96,154.17 1013.84,156.195 1013.84,163.08L1013.84,187.58C1013.84,194.464 1015.76,196.388 1022.04,196.388L1058.68,196.388C1064.96,196.388 1066.89,194.464 1066.89,187.58ZM1182.91,210.056L1148.89,210.056C1133.4,210.056 1127.93,203.779 1127.93,187.985L1127.93,140.401L1141.5,140.401L1141.5,187.985C1141.5,193.857 1143.53,196.388 1148.89,196.388L1182.91,196.388C1188.27,196.388 1190.3,193.857 1190.3,187.985L1190.3,140.401L1203.97,140.401L1203.97,187.985C1203.97,203.779 1198.4,210.056 1182.91,210.056ZM1303.59,187.479L1265.02,187.479L1265.02,210.056L1251.35,210.056L1251.35,140.401L1303.59,140.401C1319.58,140.401 1324.65,145.464 1324.65,161.561L1324.65,167.838C1324.65,182.113 1319.58,187.479 1303.59,187.479ZM1311.08,167.939L1311.08,161.561C1311.08,156.094 1309.06,154.17 1303.59,154.17L1265.02,154.17L1265.02,175.026L1303.59,175.026C1309.06,175.026 1311.08,172.9 1311.08,167.939Z" style="fill:rgb(76,85,108);"/>
        </g>
    </g>
    <g transform="matrix(0.880772,0,0,0.880772,-101.686,-104.861)">
        <path d="M142.076,191.431L141.201,191.431L141.201,210.056L115.451,210.056L115.451,122.806C115.451,120.306 116.576,119.056 119.076,119.056L193.826,119.056C210.826,119.056 217.826,126.931 217.826,140.806L217.826,148.806C217.826,156.056 214.201,160.431 210.451,163.056C215.701,165.681 219.701,170.931 219.701,178.556L219.701,186.556C219.701,201.806 213.201,210.056 195.576,210.056L149.201,210.056L142.076,191.431ZM185.951,171.556L141.201,171.556L141.201,188.681L185.951,188.681C190.451,188.681 192.451,186.806 192.451,181.431L192.451,178.806C192.451,173.431 190.701,171.556 185.951,171.556ZM184.451,139.306L143.326,139.306C141.826,139.306 141.201,140.056 141.201,141.431L141.201,156.806L184.451,156.806C190.076,156.806 192.201,154.806 192.201,149.556L192.201,146.806C192.201,141.306 190.076,139.306 184.451,139.306ZM250.451,166.181L249.576,166.181L249.576,210.056L223.826,210.056L223.826,122.806C223.826,120.306 224.951,119.056 227.326,119.056L298.451,119.056C321.076,119.056 329.201,130.181 329.201,148.181L329.201,154.681C329.201,172.306 321.076,183.181 299.451,183.181L296.826,183.181C294.326,183.181 292.451,183.181 290.701,183.056L290.701,183.931C292.826,185.931 295.076,188.431 297.076,190.931L311.576,209.056L311.576,210.056L282.576,210.056L250.451,166.181ZM293.826,141.806L251.326,141.806C250.326,141.806 249.576,142.431 249.576,143.931L249.576,163.806L293.826,163.806C300.576,163.806 303.326,161.556 303.326,154.181L303.326,151.056C303.326,144.056 300.576,141.806 293.826,141.806ZM379.701,141.681L345.826,210.056L316.076,210.056L316.076,209.056L361.701,122.056C362.826,119.806 363.576,119.056 366.451,119.056L397.826,119.056C400.701,119.056 401.576,119.806 402.826,122.056L448.076,209.056L448.076,210.056L370.201,210.056L362.701,190.306L362.701,187.806L388.201,187.806C398.951,187.806 403.451,187.931 407.701,188.306L408.076,187.431C405.951,183.806 404.201,181.056 398.951,170.431L384.576,141.681C384.201,141.056 383.701,140.806 382.826,140.806L381.326,140.806C380.576,140.806 380.076,141.056 379.701,141.681ZM476.201,210.056L450.451,210.056L450.451,119.056L476.201,119.056L476.201,210.056ZM486.326,119.056L524.576,119.056C528.326,119.056 529.576,120.181 530.826,122.681L565.326,188.056C565.826,188.931 566.576,189.556 567.701,189.556L569.076,189.556C570.326,189.556 571.076,188.806 571.076,187.556L571.076,119.056L594.451,119.056L594.451,206.431C594.451,208.806 593.326,210.056 590.951,210.056L553.951,210.056C550.451,210.056 549.076,209.181 547.576,206.431L511.826,141.181C511.326,140.181 510.701,139.681 509.451,139.681L508.201,139.681C506.826,139.681 506.201,140.431 506.201,141.681L506.201,210.056L482.826,210.056L482.826,122.806C482.826,120.306 483.951,119.056 486.326,119.056ZM706.451,141.806L682.576,150.556L681.576,150.556L681.576,140.556C681.576,139.556 681.076,139.056 680.076,139.056L632.076,139.056C628.576,139.056 627.451,140.556 627.451,143.431L627.451,145.681C627.451,149.181 628.451,149.681 631.701,150.181L688.201,158.056C702.701,160.056 707.826,165.931 707.826,179.681L707.826,186.931C707.826,201.931 701.201,210.056 681.076,210.056L600.076,210.056L600.076,186.431L672.701,186.431C676.951,186.431 678.076,185.056 678.076,181.056L678.076,178.556C678.076,175.431 677.201,174.431 674.076,174.056L619.576,167.181C604.826,165.306 598.951,159.431 598.951,146.181L598.951,139.806C598.951,126.681 605.451,119.056 621.701,119.056L702.576,119.056C705.201,119.056 706.451,120.431 706.451,123.056L706.451,141.806ZM806.201,141.806L780.076,141.806L780.076,210.056L754.326,210.056L754.326,141.806L716.576,141.806L708.201,120.056L708.201,119.056L828.826,119.056C831.326,119.056 832.451,120.306 832.451,122.806L832.451,146.431L808.576,155.306L807.576,155.306L807.576,143.181C807.576,142.181 807.201,141.806 806.201,141.806ZM862.326,166.181L861.451,166.181L861.451,210.056L835.701,210.056L835.701,122.806C835.701,120.306 836.826,119.056 839.201,119.056L910.326,119.056C932.951,119.056 941.076,130.181 941.076,148.181L941.076,154.681C941.076,172.306 932.951,183.181 911.326,183.181L908.701,183.181C906.201,183.181 904.326,183.181 902.576,183.056L902.576,183.931C904.701,185.931 906.951,188.431 908.951,190.931L923.451,209.056L923.451,210.056L894.451,210.056L862.326,166.181ZM905.701,141.806L863.201,141.806C862.201,141.806 861.451,142.431 861.451,143.931L861.451,163.806L905.701,163.806C912.451,163.806 915.201,161.556 915.201,154.181L915.201,151.056C915.201,144.056 912.451,141.806 905.701,141.806ZM977.201,173.431L971.201,157.431L970.326,157.431L970.326,184.681C970.326,185.806 970.701,186.431 972.076,186.431L1048.83,186.431L1048.83,210.056L948.201,210.056C945.701,210.056 944.576,208.806 944.576,206.306L944.576,122.806C944.576,120.306 945.701,119.056 948.201,119.056L1045.95,119.056C1048.45,119.056 1049.7,120.306 1049.7,122.806L1049.7,146.431L1025.83,155.306L1024.83,155.306L1024.83,143.181C1024.83,142.181 1024.33,141.806 1023.58,141.806L971.951,141.806C970.701,141.806 970.326,142.681 970.326,143.556L970.326,154.931L1012.83,154.931L1012.83,173.431L977.201,173.431ZM1114.45,141.681L1080.58,210.056L1050.83,210.056L1050.83,209.056L1096.45,122.056C1097.58,119.806 1098.33,119.056 1101.2,119.056L1132.58,119.056C1135.45,119.056 1136.33,119.806 1137.58,122.056L1182.83,209.056L1182.83,210.056L1104.95,210.056L1097.45,190.306L1097.45,187.806L1122.95,187.806C1133.7,187.806 1138.2,187.931 1142.45,188.306L1142.83,187.431C1140.7,183.806 1138.95,181.056 1133.7,170.431L1119.33,141.681C1118.95,141.056 1118.45,140.806 1117.58,140.806L1116.08,140.806C1115.33,140.806 1114.83,141.056 1114.45,141.681ZM1333.7,210.056L1309.45,210.056L1309.45,141.681C1309.45,140.431 1308.83,139.681 1307.58,139.681L1306.2,139.681C1305.08,139.681 1304.33,140.306 1303.95,141.306L1279.08,207.181C1278.2,209.431 1276.83,210.056 1274.2,210.056L1244.58,210.056C1241.83,210.056 1240.58,209.431 1239.7,207.181L1214.95,141.306C1214.58,140.306 1213.83,139.681 1212.58,139.681L1211.33,139.681C1210.08,139.681 1209.33,140.431 1209.33,141.681L1209.33,210.056L1185.2,210.056L1185.2,122.806C1185.2,120.306 1186.33,119.056 1188.7,119.056L1229.83,119.056C1232.7,119.056 1234.33,120.306 1235.08,122.431L1257.45,187.431C1257.58,187.931 1257.95,188.181 1258.7,188.181L1260.95,188.181C1261.58,188.181 1261.83,187.931 1261.95,187.431L1284.45,122.431C1285.2,120.306 1286.7,119.056 1289.58,119.056L1330.2,119.056C1332.58,119.056 1333.7,120.306 1333.7,122.806L1333.7,210.056Z" style="fill:rgb(20,24,36);"/>
    </g>
</svg>
