<?xml version="1.0" encoding="UTF-8" standalone="no"?>
<!DOCTYPE svg PUBLIC "-//W3C//DTD SVG 1.1//EN" "http://www.w3.org/Graphics/SVG/1.1/DTD/svg11.dtd">
<svg width="100%" height="100%" viewBox="0 0 512 512" version="1.1" xmlns="http://www.w3.org/2000/svg" xmlns:xlink="http://www.w3.org/1999/xlink" xml:space="preserve" xmlns:serif="http://www.serif.com/" style="fill-rule:evenodd;clip-rule:evenodd;stroke-linejoin:round;stroke-miterlimit:2;">
    <g transform="matrix(0.822388,0,0,0.822388,-1.84201e-14,45.0145)">
        <g transform="matrix(-1,0,0,1,298.865,0.428696)">
            <g transform="matrix(0.537554,0,0,0.537677,-387.799,-266.874)">
                <path d="M1218.41,903.173C1229.96,918.362 1240.1,934.577 1248.69,951.614C1256.08,964.676 1260.13,977.198 1264.59,991.394C1279.29,1038.13 1282.09,1087.89 1268.98,1135.39C1253.39,1191.87 1216.73,1240.83 1165.43,1269.64C1138.46,1284.78 1102.13,1297.59 1070.82,1297.08C1051.44,1296.6 1031,1294.89 1011.99,1290.66C1003.67,1288.81 992.928,1283.52 985.119,1282.2C984.747,1282.1 984.376,1282 984.004,1281.9C857.886,1233.26 810.378,1061.19 921.65,970.424C932.688,961.421 940.788,956.762 952.416,950.42C965.498,973.763 981.053,1005.46 986.732,1031.65C931.047,1064.49 935.746,1131.7 978.428,1173.58C1065.75,1259.27 1200.05,1177.94 1188.53,1064.53C1188.02,1059.49 1187.21,1052.85 1187.15,1047.86L1187.15,1047.22C1183.27,1026.86 1177.34,1006.94 1169.45,987.765C1193.68,965.304 1209.8,934.768 1218.41,903.173Z" style="fill:rgb(199,203,207);fill-rule:nonzero;"/>
                <clipPath id="_clip1">
                    <path d="M1218.41,903.173C1229.96,918.362 1240.1,934.577 1248.69,951.614C1256.08,964.676 1260.13,977.198 1264.59,991.394C1279.29,1038.13 1282.09,1087.89 1268.98,1135.39C1253.39,1191.87 1216.73,1240.83 1165.43,1269.64C1138.46,1284.78 1102.13,1297.59 1070.82,1297.08C1051.44,1296.6 1031,1294.89 1011.99,1290.66C1003.67,1288.81 992.928,1283.52 985.119,1282.2C984.747,1282.1 984.376,1282 984.004,1281.9C857.886,1233.26 810.378,1061.19 921.65,970.424C932.688,961.421 940.788,956.762 952.416,950.42C965.498,973.763 981.053,1005.46 986.732,1031.65C931.047,1064.49 935.746,1131.7 978.428,1173.58C1065.75,1259.27 1200.05,1177.94 1188.53,1064.53C1188.02,1059.49 1187.21,1052.85 1187.15,1047.86L1187.15,1047.22C1183.27,1026.86 1177.34,1006.94 1169.45,987.765C1193.68,965.304 1209.8,934.768 1218.41,903.173Z" clip-rule="nonzero"/>
                </clipPath>
                <g clip-path="url(#_clip1)">
                    <g transform="matrix(1.75007,2.27178,-4.36044,7.43696,2338.23,-3104.73)">
                        <path d="M412.884,409L441.182,420.357C441.182,420.357 440.609,432.793 432,438.277L398,438.277L398,409L412.884,409Z" style="fill:url(#_Radial2);"/>
                    </g>
                </g>
            </g>
            <g transform="matrix(0.537554,0,0,0.537677,-387.799,-266.874)">
                <path d="M811.589,648.236C809.216,661.906 808.554,674.505 816.943,686.609C824.218,697.285 835.496,704.57 848.22,706.811C875.032,711.268 867.242,662.652 886.071,647.65C907.929,615.557 946.647,650.065 955.949,677.028C973.214,743.308 904.63,801.818 842.028,793.935C828.762,792.264 821.335,790.335 809.02,785.897L808.908,993.328C808.934,1022.57 807.12,1060.38 809.059,1088.41C765.901,1099.62 744.236,1120.69 722.067,1157.7L722.323,848.805L722.329,719.75C722.518,681.748 719.502,629.387 740.552,595.672C755.481,559.872 793.967,526.771 828.804,511.494C932.818,465.883 1063.02,528.208 1102.72,632.463C1122.53,684.503 1124.73,747.022 1102.61,799.242C1080.81,850.992 1039.2,891.865 987.077,912.743C959.566,923.857 931.129,927.901 901.599,928.889C901.953,900.078 902.083,871.265 901.989,842.452C940.301,839.415 978.693,827.641 1003.72,796.415C1047.73,741.518 1040.71,658.451 985.453,613.39C928.134,566.649 840.913,572.038 811.589,648.236Z" style="fill:rgb(199,203,207);"/>
            </g>
            <g transform="matrix(0.537554,0,0,0.537677,-387.799,-266.874)">
                <path d="M1055.2,1341.02C1054.75,1342.53 1055.06,1341.69 1054.3,1343.24C1032.89,1386.7 994.908,1423.41 948.274,1438.76C903.067,1453.66 853.795,1450.02 811.268,1428.64C771.8,1409.07 741.881,1374.43 728.268,1332.53C702.292,1252.41 753.066,1167.4 831.468,1142.12C841.056,1170.99 851.983,1195.8 864.148,1223.6C847.29,1229.86 831.218,1238.64 820.609,1253.61C811.166,1266.93 807.487,1283.49 810.404,1299.56C817.892,1340.99 870.241,1366.52 909.08,1359.39C940.476,1353.63 957.849,1331.84 974.303,1307.16C979.484,1297.99 982.119,1292.09 985.119,1282.2C992.928,1283.52 1003.67,1288.81 1011.99,1290.66C1031,1294.89 1051.44,1296.6 1070.82,1297.08C1066.78,1311.88 1062.21,1327.28 1055.2,1341.02Z" style="fill:rgb(199,203,207);fill-rule:nonzero;"/>
                <clipPath id="_clip3">
                    <path d="M1055.2,1341.02C1054.75,1342.53 1055.06,1341.69 1054.3,1343.24C1032.89,1386.7 994.908,1423.41 948.274,1438.76C903.067,1453.66 853.795,1450.02 811.268,1428.64C771.8,1409.07 741.881,1374.43 728.268,1332.53C702.292,1252.41 753.066,1167.4 831.468,1142.12C841.056,1170.99 851.983,1195.8 864.148,1223.6C847.29,1229.86 831.218,1238.64 820.609,1253.61C811.166,1266.93 807.487,1283.49 810.404,1299.56C817.892,1340.99 870.241,1366.52 909.08,1359.39C940.476,1353.63 957.849,1331.84 974.303,1307.16C979.484,1297.99 982.119,1292.09 985.119,1282.2C992.928,1283.52 1003.67,1288.81 1011.99,1290.66C1031,1294.89 1051.44,1296.6 1070.82,1297.08C1066.78,1311.88 1062.21,1327.28 1055.2,1341.02Z" clip-rule="nonzero"/>
                </clipPath>
                <g clip-path="url(#_clip3)">
                    <g transform="matrix(-0.771859,2.22325,-6.54197,-1.25312,4106.61,928.967)">
                        <path d="M432,409C446.926,419.293 447.867,429.085 432,438.277L398,438.277L398,409L432,409Z" style="fill:url(#_Radial4);"/>
                    </g>
                </g>
            </g>
            <g transform="matrix(0.537554,0,0,0.537677,-387.799,-266.874)">
                <path d="M1170.31,741.948C1171.77,743.133 1173.19,744.365 1174.57,745.642C1208.36,776.454 1223.24,824.478 1222.11,869.318C1221.86,879.082 1217.72,894.692 1218.41,903.173C1209.8,934.768 1193.68,965.304 1169.45,987.765C1163.83,991.915 1158.08,998.967 1152.51,1003.54C1111.1,1037.51 1079.35,1070.35 1130.31,1116.27C1128.93,1118 1127.5,1119.68 1126.02,1121.31C1107.04,1141.95 1068.08,1167.95 1043.51,1141.08C996.029,1089.16 1018.9,1005.73 1067.06,962.769C1107.09,927.062 1137.03,906.709 1135.82,847.236C1161.64,811.748 1166.43,784.392 1170.31,741.948Z" style="fill:rgb(199,203,207);fill-rule:nonzero;"/>
            </g>
        </g>
        <g transform="matrix(1,0,0,1,324.135,0.428696)">
            <g transform="matrix(0.537554,0,0,0.537677,-387.799,-266.874)">
                <path d="M1218.41,903.173C1229.96,918.362 1240.1,934.577 1248.69,951.614C1256.08,964.676 1260.13,977.198 1264.59,991.394C1279.29,1038.13 1282.09,1087.89 1268.98,1135.39C1253.39,1191.87 1216.73,1240.83 1165.43,1269.64C1138.46,1284.78 1102.13,1297.59 1070.82,1297.08C1051.44,1296.6 1031,1294.89 1011.99,1290.66C1003.67,1288.81 992.928,1283.52 985.119,1282.2C984.747,1282.1 984.376,1282 984.004,1281.9C857.886,1233.26 810.378,1061.19 921.65,970.424C932.688,961.421 940.788,956.762 952.416,950.42C965.498,973.763 981.053,1005.46 986.732,1031.65C931.047,1064.49 935.746,1131.7 978.428,1173.58C1065.75,1259.27 1200.05,1177.94 1188.53,1064.53C1188.02,1059.49 1187.21,1052.85 1187.15,1047.86L1187.15,1047.22C1183.27,1026.86 1177.34,1006.94 1169.45,987.765C1193.68,965.304 1209.8,934.768 1218.41,903.173Z" style="fill:rgb(116,123,132);fill-rule:nonzero;"/>
                <clipPath id="_clip5">
                    <path d="M1218.41,903.173C1229.96,918.362 1240.1,934.577 1248.69,951.614C1256.08,964.676 1260.13,977.198 1264.59,991.394C1279.29,1038.13 1282.09,1087.89 1268.98,1135.39C1253.39,1191.87 1216.73,1240.83 1165.43,1269.64C1138.46,1284.78 1102.13,1297.59 1070.82,1297.08C1051.44,1296.6 1031,1294.89 1011.99,1290.66C1003.67,1288.81 992.928,1283.52 985.119,1282.2C984.747,1282.1 984.376,1282 984.004,1281.9C857.886,1233.26 810.378,1061.19 921.65,970.424C932.688,961.421 940.788,956.762 952.416,950.42C965.498,973.763 981.053,1005.46 986.732,1031.65C931.047,1064.49 935.746,1131.7 978.428,1173.58C1065.75,1259.27 1200.05,1177.94 1188.53,1064.53C1188.02,1059.49 1187.21,1052.85 1187.15,1047.86L1187.15,1047.22C1183.27,1026.86 1177.34,1006.94 1169.45,987.765C1193.68,965.304 1209.8,934.768 1218.41,903.173Z" clip-rule="nonzero"/>
                </clipPath>
                <g clip-path="url(#_clip5)">
                    <g transform="matrix(4.78428,12.2097,-13.8345,7.46587,4952.73,-7138.3)">
                        <path d="M431.33,414.829L430.114,437.625L398,438.277L398,409L414.164,409L431.33,414.829Z" style="fill:url(#_Radial6);"/>
                    </g>
                    <g transform="matrix(1.16381,1.51075,-2.89971,4.94562,1952.74,-1744.55)">
                        <rect x="398" y="409" width="34" height="29.277" style="fill:url(#_Linear7);"/>
                    </g>
                </g>
            </g>
            <g transform="matrix(0.537554,0,0,0.537677,-387.799,-266.874)">
                <path d="M811.589,648.236C809.216,661.906 808.554,674.505 816.943,686.609C824.218,697.285 835.496,704.57 848.22,706.811C875.032,711.268 867.242,662.652 886.071,647.65C907.929,615.557 946.647,650.065 955.949,677.028C973.214,743.308 904.63,801.818 842.028,793.935C828.762,792.264 821.335,790.335 809.02,785.897L808.908,993.328C808.934,1022.57 807.12,1060.38 809.059,1088.41C765.901,1099.62 744.236,1120.69 722.067,1157.7L722.323,848.805L722.329,719.75C722.518,681.748 719.502,629.387 740.552,595.672C755.481,559.872 793.967,526.771 828.804,511.494C932.818,465.883 1063.02,528.208 1102.72,632.463C1122.53,684.503 1124.73,747.022 1102.61,799.242C1080.81,850.992 1039.2,891.865 987.077,912.743C959.566,923.857 931.129,927.901 901.599,928.889C901.953,900.078 902.083,871.265 901.989,842.452C940.301,839.415 978.693,827.641 1003.72,796.415C1047.73,741.518 1040.71,658.451 985.453,613.39C928.134,566.649 840.913,572.038 811.589,648.236Z" style="fill:url(#_Linear8);"/>
            </g>
            <g transform="matrix(0.537554,0,0,0.537677,-387.799,-266.874)">
                <path d="M1055.2,1341.02C1054.75,1342.53 1055.06,1341.69 1054.3,1343.24C1032.89,1386.7 994.908,1423.41 948.274,1438.76C903.067,1453.66 853.795,1450.02 811.268,1428.64C771.8,1409.07 741.881,1374.43 728.268,1332.53C702.292,1252.41 753.066,1167.4 831.468,1142.12C841.056,1170.99 851.983,1195.8 864.148,1223.6C847.29,1229.86 831.218,1238.64 820.609,1253.61C811.166,1266.93 807.487,1283.49 810.404,1299.56C817.892,1340.99 870.241,1366.52 909.08,1359.39C940.476,1353.63 957.849,1331.84 974.303,1307.16C979.484,1297.99 982.119,1292.09 985.119,1282.2C992.928,1283.52 1003.67,1288.81 1011.99,1290.66C1031,1294.89 1051.44,1296.6 1070.82,1297.08C1066.78,1311.88 1062.21,1327.28 1055.2,1341.02Z" style="fill:rgb(25,171,249);fill-rule:nonzero;"/>
                <clipPath id="_clip9">
                    <path d="M1055.2,1341.02C1054.75,1342.53 1055.06,1341.69 1054.3,1343.24C1032.89,1386.7 994.908,1423.41 948.274,1438.76C903.067,1453.66 853.795,1450.02 811.268,1428.64C771.8,1409.07 741.881,1374.43 728.268,1332.53C702.292,1252.41 753.066,1167.4 831.468,1142.12C841.056,1170.99 851.983,1195.8 864.148,1223.6C847.29,1229.86 831.218,1238.64 820.609,1253.61C811.166,1266.93 807.487,1283.49 810.404,1299.56C817.892,1340.99 870.241,1366.52 909.08,1359.39C940.476,1353.63 957.849,1331.84 974.303,1307.16C979.484,1297.99 982.119,1292.09 985.119,1282.2C992.928,1283.52 1003.67,1288.81 1011.99,1290.66C1031,1294.89 1051.44,1296.6 1070.82,1297.08C1066.78,1311.88 1062.21,1327.28 1055.2,1341.02Z" clip-rule="nonzero"/>
                </clipPath>
                <g clip-path="url(#_clip9)">
                    <g transform="matrix(0.325416,1.21419,-1.21447,0.325341,1129.71,947.166)">
                        <ellipse cx="221" cy="259.324" rx="145" ry="145.324" style="fill:url(#_Radial10);"/>
                    </g>
                    <g transform="matrix(-0.725892,2.09085,-6.15238,-1.1785,3923.27,951.907)">
                        <path d="M432,409C449.602,419.852 451.189,429.71 432,438.277L398,438.277L398,409L432,409Z" style="fill:url(#_Radial11);"/>
                    </g>
                </g>
            </g>
            <g transform="matrix(0.537554,0,0,0.537677,-387.799,-266.874)">
                <path d="M1170.31,741.948C1171.77,743.133 1173.19,744.365 1174.57,745.642C1208.36,776.454 1223.24,824.478 1222.11,869.318C1221.86,879.082 1217.72,894.692 1218.41,903.173C1209.8,934.768 1193.68,965.304 1169.45,987.765C1163.83,991.915 1158.08,998.967 1152.51,1003.54C1111.1,1037.51 1079.35,1070.35 1130.31,1116.27C1128.93,1118 1127.5,1119.68 1126.02,1121.31C1107.04,1141.95 1068.08,1167.95 1043.51,1141.08C996.029,1089.16 1018.9,1005.73 1067.06,962.769C1107.09,927.062 1137.03,906.709 1135.82,847.236C1161.64,811.748 1166.43,784.392 1170.31,741.948Z" style="fill:rgb(25,171,249);fill-rule:nonzero;"/>
                <clipPath id="_clip12">
                    <path d="M1170.31,741.948C1171.77,743.133 1173.19,744.365 1174.57,745.642C1208.36,776.454 1223.24,824.478 1222.11,869.318C1221.86,879.082 1217.72,894.692 1218.41,903.173C1209.8,934.768 1193.68,965.304 1169.45,987.765C1163.83,991.915 1158.08,998.967 1152.51,1003.54C1111.1,1037.51 1079.35,1070.35 1130.31,1116.27C1128.93,1118 1127.5,1119.68 1126.02,1121.31C1107.04,1141.95 1068.08,1167.95 1043.51,1141.08C996.029,1089.16 1018.9,1005.73 1067.06,962.769C1107.09,927.062 1137.03,906.709 1135.82,847.236C1161.64,811.748 1166.43,784.392 1170.31,741.948Z" clip-rule="nonzero"/>
                </clipPath>
                <g clip-path="url(#_clip12)">
                    <g transform="matrix(-0.397334,1.48253,-1.48287,-0.397243,1582.15,718.108)">
                        <ellipse cx="221" cy="259.324" rx="145" ry="145.324" style="fill:url(#_Radial13);"/>
                    </g>
                </g>
            </g>
        </g>
    </g>
    <defs>
        <radialGradient id="_Radial2" cx="0" cy="0" r="1" gradientUnits="userSpaceOnUse" gradientTransform="matrix(34,0,0,29.2772,398,423.639)"><stop offset="0" style="stop-color:rgb(102,102,102);stop-opacity:1"/><stop offset="1" style="stop-color:rgb(199,203,207);stop-opacity:0"/></radialGradient>
        <radialGradient id="_Radial4" cx="0" cy="0" r="1" gradientUnits="userSpaceOnUse" gradientTransform="matrix(34,0,0,29.2772,398,423.639)"><stop offset="0" style="stop-color:rgb(102,102,102);stop-opacity:1"/><stop offset="1" style="stop-color:rgb(199,203,207);stop-opacity:0"/></radialGradient>
        <radialGradient id="_Radial6" cx="0" cy="0" r="1" gradientUnits="userSpaceOnUse" gradientTransform="matrix(34,0,0,29.2772,398,423.639)"><stop offset="0" style="stop-color:rgb(248,145,254);stop-opacity:1"/><stop offset="0.56" style="stop-color:rgb(158,43,219);stop-opacity:1"/><stop offset="1" style="stop-color:rgb(120,0,204);stop-opacity:1"/></radialGradient>
        <linearGradient id="_Linear7" x1="0" y1="0" x2="1" y2="-0.144827" gradientUnits="userSpaceOnUse" gradientTransform="matrix(34,0,0,29.2772,398,423.639)"><stop offset="0" style="stop-color:rgb(45,0,77);stop-opacity:1"/><stop offset="1" style="stop-color:rgb(149,32,215);stop-opacity:0"/></linearGradient>
        <linearGradient id="_Linear8" x1="0" y1="0" x2="1" y2="0.00017122" gradientUnits="userSpaceOnUse" gradientTransform="matrix(166.898,-371.943,371.943,166.898,832.744,894.026)"><stop offset="0" style="stop-color:rgb(120,0,204);stop-opacity:1"/><stop offset="1" style="stop-color:rgb(255,153,255);stop-opacity:1"/></linearGradient>
        <radialGradient id="_Radial10" cx="0" cy="0" r="1" gradientUnits="userSpaceOnUse" gradientTransform="matrix(290,0,0,290.648,76,259.324)"><stop offset="0" style="stop-color:rgb(102,202,255);stop-opacity:1"/><stop offset="0.44" style="stop-color:rgb(71,167,255);stop-opacity:1"/><stop offset="1" style="stop-color:rgb(0,85,255);stop-opacity:1"/></radialGradient>
        <radialGradient id="_Radial11" cx="0" cy="0" r="1" gradientUnits="userSpaceOnUse" gradientTransform="matrix(34,0,0,29.2772,398,423.639)"><stop offset="0" style="stop-color:rgb(0,46,102);stop-opacity:1"/><stop offset="1" style="stop-color:rgb(25,171,249);stop-opacity:0"/></radialGradient>
        <radialGradient id="_Radial13" cx="0" cy="0" r="1" gradientUnits="userSpaceOnUse" gradientTransform="matrix(290,0,0,290.648,76,259.324)"><stop offset="0" style="stop-color:rgb(102,202,255);stop-opacity:1"/><stop offset="0.44" style="stop-color:rgb(71,167,255);stop-opacity:1"/><stop offset="1" style="stop-color:rgb(0,85,255);stop-opacity:1"/></radialGradient>
    </defs>
</svg>
