<?xml version="1.0" encoding="UTF-8" standalone="no"?>
<!DOCTYPE svg PUBLIC "-//W3C//DTD SVG 1.1//EN" "http://www.w3.org/Graphics/SVG/1.1/DTD/svg11.dtd">
<svg width="100%" height="100%" viewBox="0 0 800 800" version="1.1" xmlns="http://www.w3.org/2000/svg" xmlns:xlink="http://www.w3.org/1999/xlink" xml:space="preserve" xmlns:serif="http://www.serif.com/" style="fill-rule:evenodd;clip-rule:evenodd;stroke-linejoin:round;stroke-miterlimit:2;">
    <g transform="matrix(0.730255,0.58696,-0.54887,0.682866,227.255,-192.206)">
        <path d="M544.799,-186.814L-0.331,281.754C-33.58,310.333 -38.869,362.327 -12.145,397.883L426.015,980.841C452.741,1016.4 501.36,1022.06 534.609,993.477L1079.74,524.91C1112.99,496.329 1118.28,444.336 1091.55,408.778L653.392,-174.181C626.667,-209.737 578.048,-215.393 544.799,-186.814ZM607.314,771.029C615.091,781.377 613.552,796.507 603.876,804.824L529.297,868.929C519.621,877.246 505.473,875.6 497.695,865.252L246.412,530.927C238.634,520.579 240.173,505.449 249.85,497.132L324.428,433.028C334.105,424.71 348.253,426.356 356.03,436.704L607.314,771.029ZM998.193,437.532C1005.34,447.046 1003.93,460.959 995.032,468.605L915.004,537.394C906.108,545.04 893.097,543.527 885.947,534.013L768.081,377.196C750.498,353.802 697.448,269.168 633.863,323.823C584.542,366.217 615.241,428.97 631.499,455L767.445,635.872C774.595,645.385 773.182,659.297 764.284,666.945L686.883,733.475C677.987,741.122 664.977,739.608 657.827,730.095L404.275,392.751C397.124,383.238 398.54,369.325 407.436,361.678L484.836,295.148C493.732,287.502 506.743,289.015 513.893,298.529L535.816,327.696C532.044,282.626 542.196,236.611 600.065,186.869C728.21,76.722 823.704,205.38 876.576,275.725L998.193,437.532ZM263.452,433.565C224.323,467.198 167.105,460.542 135.654,418.697C104.204,376.853 110.428,315.664 149.557,282.031C188.686,248.398 245.904,255.054 277.354,296.898C308.805,338.743 302.583,399.93 263.452,433.565Z" style="fill:url(#_Radial1);"/>
    </g>
    <defs>
        <radialGradient id="_Radial1" cx="0" cy="0" r="1" gradientUnits="userSpaceOnUse" gradientTransform="matrix(1338,0,0,1412,-94,400)"><stop offset="0" style="stop-color:rgb(149,205,235);stop-opacity:1"/><stop offset="1" style="stop-color:rgb(0,119,183);stop-opacity:1"/></radialGradient>
    </defs>
</svg>
