<?xml version="1.0" encoding="UTF-8" standalone="no"?>
<!DOCTYPE svg PUBLIC "-//W3C//DTD SVG 1.1//EN" "http://www.w3.org/Graphics/SVG/1.1/DTD/svg11.dtd">
<svg width="100%" height="100%" viewBox="0 0 427 427" version="1.1" xmlns="http://www.w3.org/2000/svg" xmlns:xlink="http://www.w3.org/1999/xlink" xml:space="preserve" xmlns:serif="http://www.serif.com/" style="fill-rule:evenodd;clip-rule:evenodd;stroke-linejoin:round;stroke-miterlimit:2;">
    <g transform="matrix(21.3333,0,0,21.3333,-42.6667,-42.6667)">
        <path d="M22,4.344L22,19.656C22,20.95 20.95,22 19.656,22L4.344,22C3.05,22 2,20.95 2,19.656L2,4.344C2,3.05 3.05,2 4.344,2L19.656,2C20.95,2 22,3.05 22,4.344ZM8.5,7C8.5,6.2 7.9,5.6 7,5.6C6.1,5.6 5.5,6.2 5.5,7C5.5,7.7 6.1,8.3 7,8.3C7.9,8.3 8.5,7.7 8.5,7ZM18.2,13C18.2,10.5 17,9.3 15.3,9.3C14,9.3 13.3,10.1 13,10.7L13,9.6L10.8,9.6L10.8,18L13,18L13,13.4C13,13.1 13,12.7 13.1,12.5C13.3,12 13.7,11.4 14.5,11.4C15.6,11.4 16,12.2 16,13.4L16,18L18.2,18L18.2,13ZM8.2,9.6L5.8,9.6L5.8,18L8.2,18L8.2,9.6Z" style="fill:rgb(247,247,251);"/>
    </g>
</svg>
