<?xml version="1.0" encoding="UTF-8" standalone="no"?>
<!DOCTYPE svg PUBLIC "-//W3C//DTD SVG 1.1//EN" "http://www.w3.org/Graphics/SVG/1.1/DTD/svg11.dtd">
<svg width="100%" height="100%" viewBox="0 0 512 512" version="1.1" xmlns="http://www.w3.org/2000/svg" xmlns:xlink="http://www.w3.org/1999/xlink" xml:space="preserve" xmlns:serif="http://www.serif.com/" style="fill-rule:evenodd;clip-rule:evenodd;stroke-linejoin:round;stroke-miterlimit:2;">
    <g transform="matrix(25.6,0,0,25.6,-51.2,-51.2)">
        <path d="M22,3.953L22,20.047C22,21.125 21.125,22 20.047,22L3.953,22C2.875,22 2,21.125 2,20.047L2,3.953C2,2.875 2.875,2 3.953,2L20.047,2C21.125,2 22,2.875 22,3.953ZM18.2,13C18.2,10.5 17,9.3 15.3,9.3C14,9.3 13.3,10.1 13,10.7L13,9.6L10.8,9.6L10.8,18L13,18L13,13.4C13,13.1 13,12.7 13.1,12.5C13.3,12 13.7,11.4 14.5,11.4C15.6,11.4 16,12.2 16,13.4L16,18L18.2,18L18.2,13ZM8.5,7C8.5,6.2 7.9,5.6 7,5.6C6.1,5.6 5.5,6.2 5.5,7C5.5,7.7 6.1,8.3 7,8.3C7.9,8.3 8.5,7.7 8.5,7ZM8.2,9.6L5.8,9.6L5.8,18L8.2,18L8.2,9.6Z" style="fill:rgb(20,24,36);"/>
    </g>
</svg>
